<svg xmlns="http://www.w3.org/2000/svg" viewBox="0 0 746.1 580.7"><defs><style>.cls-1,.cls-2{fill:#09080a;}.cls-1,.cls-3{stroke:#09080a;stroke-miterlimit:10;}.cls-3{fill:none;}.cls-4{fill:#fff;}.cls-5{opacity:0.4;}</style></defs><title>logo</title><g id="ロゴ"><g id="ロゴ_線OL"><path class="cls-1" d="M651.1,82.1a4.8,4.8,0,0,1-3-8.4l53.6-45.2a4.7,4.7,0,1,1,6.1,7.2L654.2,81A5.1,5.1,0,0,1,651.1,82.1Z"/><path class="cls-1" d="M583.2,80a4.7,4.7,0,0,1-3.1-1.2,4.7,4.7,0,0,1-.5-6.7l23.9-27.9a4.7,4.7,0,0,1,7.2,6.1l-23.9,28A4.8,4.8,0,0,1,583.2,80Z"/><path class="cls-1" d="M643.1,170.2a4.8,4.8,0,0,1-.6-9.5l64.9-8a4.7,4.7,0,1,1,1.2,9.4l-64.9,8Z"/><path class="cls-1" d="M631,146.9a4.7,4.7,0,0,1-2.3-8.8l55.5-31.2a4.7,4.7,0,0,1,4.6,8.2l-55.4,31.2A5.3,5.3,0,0,1,631,146.9Z"/><path class="cls-1" d="M633.9,16.1l8.8,6.1a1.9,1.9,0,0,1-1,3.4l-10.6.4a1.8,1.8,0,0,0-1.7,1.3l-3.6,11.2a1.8,1.8,0,0,1-3.5,0l-3.9-10.8a1.7,1.7,0,0,0-1.8-1.2l-11.5.2a1.8,1.8,0,0,1-1.1-3.3l9.1-7.3a1.8,1.8,0,0,0,.7-2L610.4,3.9a1.8,1.8,0,0,1,2.8-2.1L622,7.9a2,2,0,0,0,2.2-.1L633.5.9a1.9,1.9,0,0,1,2.9,2l-3.2,11.2A1.9,1.9,0,0,0,633.9,16.1Z"/><path class="cls-1" d="M632.9,100.8l6.4,8.6a1.9,1.9,0,0,1-2,2.9L627,109.2a2,2,0,0,0-2,.7l-6.9,9.5a1.9,1.9,0,0,1-3.4-1.1l-.2-11.5a1.7,1.7,0,0,0-1.3-1.7l-10.9-3.5a1.8,1.8,0,0,1-.1-3.5l11-4a1.7,1.7,0,0,0,1.3-1.7V81.7a1.8,1.8,0,0,1,3.3-1.1l6.4,8.6a1.9,1.9,0,0,0,2.1.6l11.1-3.6a1.8,1.8,0,0,1,2.1,2.8l-6.6,9.6A1.8,1.8,0,0,0,632.9,100.8Z"/><path class="cls-1" d="M704.2,106.2a4.6,4.6,0,0,1-4.1-2.4,4.8,4.8,0,0,1,1.8-6.5l36.6-20.7a4.6,4.6,0,0,1,6.4,1.8,4.7,4.7,0,0,1-1.7,6.4l-36.7,20.8A4.6,4.6,0,0,1,704.2,106.2Z"/><path class="cls-1" d="M104.4,161.7h-1L51.2,150.1a4.7,4.7,0,0,1-3.6-5.6,4.6,4.6,0,0,1,5.6-3.6l52.3,11.5a4.7,4.7,0,0,1,3.6,5.6A4.8,4.8,0,0,1,104.4,161.7Z"/><path class="cls-1" d="M31.8,145.4l-1.2-.2L4,138.3a4.7,4.7,0,0,1,2.4-9.1L33,136.1a4.6,4.6,0,0,1,3.4,5.7A4.7,4.7,0,0,1,31.8,145.4Z"/><path class="cls-1" d="M112.4,69.5a5,5,0,0,1-3.8-1.9L64,10.4a4.8,4.8,0,0,1,.9-6.7,4.7,4.7,0,0,1,6.6.9l44.6,57.2a4.9,4.9,0,0,1-.8,6.7A5.3,5.3,0,0,1,112.4,69.5Z"/><path class="cls-1" d="M122.2,137.7a4.9,4.9,0,0,1-2.8-.9L84.9,111.7a4.8,4.8,0,0,1,5.6-7.7L125,129.1a4.7,4.7,0,0,1,1,6.6A4.6,4.6,0,0,1,122.2,137.7Z"/><path class="cls-1" d="M36.5,76a5.2,5.2,0,0,1-2.9-.9L15.9,61.5a4.8,4.8,0,0,1-.9-6.7,4.9,4.9,0,0,1,6.6-.9L39.4,67.5a4.8,4.8,0,0,1,.9,6.7A4.9,4.9,0,0,1,36.5,76Z"/><path class="cls-1" d="M165.3,70.7a4.6,4.6,0,0,1-3.8-2L134.4,30.8a4.8,4.8,0,0,1,1.1-6.6,4.6,4.6,0,0,1,6.6,1.1l27.1,37.9a4.8,4.8,0,0,1-1.1,6.6A4.9,4.9,0,0,1,165.3,70.7Z"/><path class="cls-1" d="M61.7,80.3l6.1-8.8a1.9,1.9,0,0,1,3.4,1l.4,10.7a2.3,2.3,0,0,0,1.3,1.7l11.2,3.5a1.8,1.8,0,0,1,0,3.5L73.3,95.8a1.8,1.8,0,0,0-1.2,1.8l.2,11.5a1.9,1.9,0,0,1-3.4,1.2l-7.2-9.2a1.6,1.6,0,0,0-2-.6l-10.2,3.3a1.8,1.8,0,0,1-2.1-2.8l6.1-8.8a2,2,0,0,0-.1-2.2l-6.9-9.3a1.9,1.9,0,0,1,2-2.9L59.7,81A1.9,1.9,0,0,0,61.7,80.3Z"/><path class="cls-1" d="M132.9,80.4l8.3-6.8a1.9,1.9,0,0,1,3,1.9l-2.6,10.4a1.8,1.8,0,0,0,.8,2l9.7,6.4a1.9,1.9,0,0,1-.9,3.5l-11.4.7a1.8,1.8,0,0,0-1.7,1.4l-3,11.1a1.8,1.8,0,0,1-3.5.2l-4.4-10.8a2.1,2.1,0,0,0-1.8-1.2l-10.7.5a1.9,1.9,0,0,1-1.3-3.3l8.3-6.8a1.8,1.8,0,0,0,.5-2.1l-4.1-10.9a1.8,1.8,0,0,1,2.7-2.2l9.9,6.2A2,2,0,0,0,132.9,80.4Z"/><path class="cls-2" d="M670.7,277.7,533.8,62.8S484.3,76,373.5,76C268,76,209.9,62.8,209.9,62.8L90.3,277.7,201.5,472.9s56.6-17,152.7-20.2l18.4,31.9,18.8-32.4c104.7.8,152.9,20.7,152.9,20.7Z"/><path class="cls-3" d="M670.7,277.7,533.8,62.8S484.3,76,373.5,76C268,76,209.9,62.8,209.9,62.8L90.3,277.7,201.5,472.9s56.6-17,152.7-20.2l18.4,31.9,18.8-32.4c104.7.8,152.9,20.7,152.9,20.7Z"/><g id="ロゴ-2" data-name="ロゴ"><polygon class="cls-4" points="325.9 246.5 331.9 212.6 305.5 212.6 299.6 246.5 277.1 246.5 293.4 153.7 315.8 153.7 308.8 193.3 335.2 193.3 349.8 110.9 374.3 110.9 350.5 246.5 325.9 246.5"/><path class="cls-2" d="M373.7,111.4,350.1,246H326.5l5.8-32.7.2-1.2H305v.8L299.2,246H277.7l16.1-91.8h21.4l-6.8,38.4-.2,1.2h27.4l.2-.8,14.4-81.6h23.5m1.2-1H349.4l-14.6,82.4H309.4l7-39.6H293L276.5,247H300l5.9-33.9h25.4l-6,33.9h25.6l24-136.6Z"/><path class="cls-4" d="M356.3,272.9l20.1-119.2h39.2c9.7,0,16.6,2.2,20.6,6.6s4.5,7.7,4.5,13a36.4,36.4,0,0,1-.5,5.6l-2.6,14.7c-1.3,7.1-5.1,12.9-11.3,17.5s-13.9,6.9-22.9,6.9H387.5l-8.8,54.9Zm34.5-74.3H403q11.1,0,12.9-9.9l.9-5.3a13.9,13.9,0,0,0,.3-3.2,7.3,7.3,0,0,0-2.1-4.6c-1.4-1.7-3.9-2.6-7.6-2.6H395.3Z"/><path class="cls-2" d="M415.6,154.2c9.5,0,16.3,2.2,20.3,6.5a18.7,18.7,0,0,1,4.3,12.6,36.2,36.2,0,0,1-.5,5.5l-2.6,14.7A27.2,27.2,0,0,1,426,210.7c-6.1,4.5-13.7,6.8-22.6,6.8H387.1l-.2.8-8.7,54.1H356.8l20-118.2h38.8m-25.4,44.9H403c7.7,0,12.2-3.4,13.4-10.3l.9-5.3a14.2,14.2,0,0,0,.3-3.3c0-1.6-.8-3.2-2.2-5s-4.2-2.7-8-2.7H394.9l-.2.9L390.4,198l-.2,1.1m25.4-45.9H375.9L355.7,273.4h23.4l8.8-54.9h15.5c9.1,0,16.8-2.4,23.2-7s10.1-10.6,11.4-17.8l2.6-14.7a29.1,29.1,0,0,0,.6-5.7,19.7,19.7,0,0,0-4.6-13.3c-4.2-4.5-11.1-6.8-21-6.8Zm-24.2,44.9,4.3-24.6h11.7q5.3,0,7.2,2.4a7,7,0,0,1,2,4.3,13,13,0,0,1-.3,3.1l-.9,5.3c-1.1,6.4-5.3,9.5-12.4,9.5Z"/><path class="cls-4" d="M195.3,272.9l20.1-119.2h39.3c9.6,0,16.6,2.2,20.6,6.6a19.3,19.3,0,0,1,4.4,13,27.1,27.1,0,0,1-.5,5.6l-2.6,14.7c-1.3,7.1-5.1,12.9-11.3,17.5s-13.9,6.9-22.8,6.9h-16l-8.8,54.9Zm34.6-74.3h12.2c7.3,0,11.7-3.3,12.8-9.9l1-5.3a25.8,25.8,0,0,0,.2-3.2,7.3,7.3,0,0,0-2.1-4.6c-1.3-1.7-3.9-2.6-7.5-2.6H234.4Z"/><path class="cls-2" d="M254.7,154.2c9.5,0,16.3,2.2,20.2,6.5s4.3,7.5,4.3,12.6a26.8,26.8,0,0,1-.5,5.5l-2.6,14.7c-1.2,6.9-5,12.7-11,17.2s-13.8,6.8-22.6,6.8H226.1v.8l-8.7,54.1H195.9l19.9-118.2h38.9m-25.4,44.9h12.8c7.6,0,12.1-3.4,13.3-10.3l.9-5.3a14.2,14.2,0,0,0,.3-3.3,7.9,7.9,0,0,0-2.2-5c-1.5-1.8-4.1-2.7-7.9-2.7H233.9v.9L229.5,198l-.2,1.1m25.4-45.9H215L194.7,273.4h23.5l8.8-54.9h15.5c9.1,0,16.8-2.4,23.1-7s10.2-10.6,11.5-17.8l2.6-14.7a28.7,28.7,0,0,0,.5-5.7c0-5.4-1.5-9.8-4.5-13.3s-11.2-6.8-21-6.8Zm-24.2,44.9,4.3-24.6h11.7q5.3,0,7.2,2.4a6.8,6.8,0,0,1,1.9,4.3,24.1,24.1,0,0,1-.2,3.1l-1,5.3c-1.1,6.4-5.2,9.5-12.3,9.5Z"/><path class="cls-4" d="M464,248.3c-17.9,0-26.6-6-26.6-18.3a27.4,27.4,0,0,1,.5-5.5l2.7-16.1c1.5-8.2,5.3-14.5,11.3-18.9s14.3-6.6,24.4-6.6c17.3,0,25.7,6.3,25.7,19.3a49.7,49.7,0,0,1-.5,6.2l-1.5,8.8H460.3l-.6,3.4a15,15,0,0,0-.3,2.9c0,5.1,3,7.7,9,7.7a7.9,7.9,0,0,0,5.6-2.1,7.4,7.4,0,0,0,2.7-4.4l20.6.2C494.4,240.4,483.1,248.3,464,248.3Z"/><path class="cls-2" d="M476.3,183.4c17,0,25.2,6.1,25.2,18.8a46.8,46.8,0,0,1-.5,6.1l-1.4,8.4H459.9l-.2.8-.5,3a16.9,16.9,0,0,0-.3,3c0,3.8,1.7,8.2,9.5,8.2a8.7,8.7,0,0,0,6-2.2,8.3,8.3,0,0,0,2.7-4.3l19.6.2c-3.1,15.1-13.8,22.4-32.7,22.4S437.9,242,437.9,230a26.5,26.5,0,0,1,.5-5.4l2.7-16.1c1.4-8.1,5.2-14.3,11.1-18.6s14.1-6.5,24.1-6.5m0-1c-10.2,0-18.4,2.2-24.7,6.7s-10,10.9-11.5,19.2l-2.7,16.1a28.4,28.4,0,0,0-.5,5.6c0,12.5,9,18.8,27.1,18.8,19.7,0,31.1-8.1,33.9-24.4l-21.6-.2a7,7,0,0,1-2.6,4.5,7.8,7.8,0,0,1-5.3,2c-5.7,0-8.5-2.4-8.5-7.2a14.9,14.9,0,0,1,.3-2.8l.5-3h39.7l1.6-9.3a46.9,46.9,0,0,0,.5-6.2c0-13.2-8.7-19.8-26.2-19.8Z"/><path class="cls-4" d="M503.1,246.5,514,184.8h19.5l-1.8,10.4,1.3-1.8c4.8-6.9,10.7-10.4,17.5-10.4s9.7,1.3,12.4,3.9,4.1,6.2,4.1,10.7a24,24,0,0,1-1.5,8.4,20.8,20.8,0,0,1-2.9,6l-1.2,1.7H543.1a10.5,10.5,0,0,0,2.6-7,6.1,6.1,0,0,0-1.6-4.2,6.5,6.5,0,0,0-4.5-1.6c-3.1,0-5.8,1.6-8.1,4.6h-.1l-7.2,40.9Z"/><path class="cls-2" d="M550.5,183.5c5.4,0,9.4,1.3,12,3.8s4,5.9,4,10.3a23.9,23.9,0,0,1-1.5,8.3,20.8,20.8,0,0,1-2.8,5.8l-1.1,1.5H544.2a11.1,11.1,0,0,0,2-6.5,6.1,6.1,0,0,0-1.8-4.5,6.5,6.5,0,0,0-4.8-1.8c-3.3,0-6.1,1.6-8.5,4.8v.5L523.8,246H503.7l10.7-60.7h18.5l-1.3,7.6-.8,4.4,2.6-3.7c4.7-6.7,10.5-10.1,17.1-10.1m0-1c-7,0-13,3.5-17.9,10.6l1.5-8.8H513.6L502.5,247h22.1l7.3-41.2c2.2-2.9,4.7-4.4,7.7-4.4a5.6,5.6,0,0,1,4.1,1.5,5.2,5.2,0,0,1,1.5,3.8,9.7,9.7,0,0,1-3.3,7.5h19.7l1.4-1.9a22.9,22.9,0,0,0,3-6.1,25.1,25.1,0,0,0,1.5-8.6c0-4.7-1.4-8.4-4.3-11s-7-4.1-12.7-4.1Z"/><polygon class="cls-4" points="232.4 412.6 253.9 280.6 276.4 280.6 269.5 319.6 278.7 319.6 315.7 259.7 339.3 259.7 297.5 327.2 310.7 373.3 287 373.3 277.2 338.9 266.1 338.9 254.8 412.6 232.4 412.6"/><path class="cls-2" d="M338.4,260.2l-41.2,66.6-.2.4v.4L310,372.8H287.4l-9.6-33.6-.2-.8H265.7v.9l-11.2,72.8H233l21.4-131h21.4l-6.7,37.8-.2,1.2h10l.3-.5L316,260.2h22.4m1.8-1H315.4l-37,59.9h-8.3l6.9-39H253.5l-21.7,133h23.5l11.2-73.7h10.3l9.8,34.4h24.7l-13.2-46.5,42.1-68.1Z"/><path class="cls-4" d="M370.6,375.1c-9.4,0-14.4-3.2-15.4-10l-.2-1.3-.7,1.1c-4.3,6.8-10.6,10.2-18.8,10.2-14,0-20.8-5.8-20.8-17.8a41.8,41.8,0,0,1,.6-6.8l2.8-15.3c1.3-7.6,4.5-13.8,9.4-18.4s11.3-6.8,19.2-6.8,13.2,1.8,15.9,5.4l.7.9.8-4.6h18.8l-7.2,40.4a8.8,8.8,0,0,0-.2,1.7c0,2.5,1.4,3.8,4,3.8a14.4,14.4,0,0,0,5.3-.9l-.7,13.6A21.1,21.1,0,0,1,370.6,375.1Zm-19.7-47.5c-6.9,0-11,3.4-12.2,10.1l-1.7,9.7a14.6,14.6,0,0,0-.3,3.4,6.3,6.3,0,0,0,2.1,4.4c1.4,1.4,3.8,2.2,7,2.2a11,11,0,0,0,8.3-3.8h.1l4-22.2h-.1Q356.6,327.6,350.9,327.6Z"/><path class="cls-2" d="M346.7,310.5c7.6,0,12.9,1.7,15.5,5.2l1.4,1.8.4-2.3.5-3h17.8L375.2,352a11,11,0,0,0-.2,1.8c0,2.8,1.6,4.3,4.5,4.3a13.7,13.7,0,0,0,4.7-.7l-.5,12.7a21,21,0,0,1-13.1,4.5c-9.1,0-14-3.1-14.9-9.5l-.4-2.7-1.5,2.3c-4.1,6.7-10.1,9.9-18.2,9.9-13.7,0-20.4-5.7-20.4-17.3a42.7,42.7,0,0,1,.6-6.8l2.8-15.2c1.3-7.5,4.4-13.6,9.2-18.1s11.2-6.7,18.9-6.7m-.9,47.4a11.7,11.7,0,0,0,8.7-4l.2-.2v-.3l3.9-21.9V331c-1.1-2.6-3.7-3.9-7.7-3.9-7.2,0-11.5,3.5-12.7,10.5l-1.7,9.7a15.6,15.6,0,0,0-.3,3.5,7.2,7.2,0,0,0,2.3,4.8c1.5,1.5,3.9,2.3,7.3,2.3m.9-48.4c-8,0-14.6,2.3-19.5,6.9s-8.2,10.9-9.6,18.7l-2.8,15.3a43.9,43.9,0,0,0-.6,6.9c0,12.2,7.1,18.3,21.4,18.3,8.4,0,14.7-3.4,19.1-10.4,1,7,6.3,10.4,15.9,10.4a21.4,21.4,0,0,0,14-5.1l.7-14.7a11.6,11.6,0,0,1-5.8,1.3c-2.3,0-3.5-1.1-3.5-3.3a7.8,7.8,0,0,1,.2-1.6l7.3-41H363.7l-.7,3.9c-2.8-3.7-8.3-5.6-16.3-5.6Zm-.9,47.4c-3.1,0-5.3-.7-6.6-2a6.3,6.3,0,0,1-2-4.1,14.2,14.2,0,0,1,.3-3.3l1.7-9.8q1.7-9.6,11.7-9.6c3.6,0,5.8,1.1,6.8,3.3l-3.9,21.8a10.4,10.4,0,0,1-8,3.7Z"/><path class="cls-4" d="M409,375.1c-7.7,0-12.7-1.7-15-5.2a13.6,13.6,0,0,1-2.2-7.5,37.6,37.6,0,0,1,.5-7.1l7.7-43.6h21.1L414,352.1a8.9,8.9,0,0,0-.2,1.5c0,1.9.8,4,4.4,4a12.1,12.1,0,0,0,4.8-.9l-.6,13.6A20.6,20.6,0,0,1,409,375.1Z"/><path class="cls-2" d="M420.6,312.2,413.5,352a10,10,0,0,0-.2,1.6c0,2.9,1.8,4.5,4.9,4.5a11.8,11.8,0,0,0,4.3-.7l-.6,12.7a20.3,20.3,0,0,1-12.9,4.5c-7.5,0-12.4-1.7-14.5-5a12.7,12.7,0,0,1-2.2-7.2,36.5,36.5,0,0,1,.5-7l7.6-43.2h20.2m1.1-1H399.6l-7.8,44a39.4,39.4,0,0,0-.5,7.2,15,15,0,0,0,2.3,7.8c2.4,3.6,7.5,5.4,15.4,5.4a21.1,21.1,0,0,0,13.9-5.1l.7-14.7a10.8,10.8,0,0,1-5.4,1.3c-2.6,0-3.9-1.1-3.9-3.5a7.8,7.8,0,0,1,.2-1.4l7.2-41Z"/><path class="cls-4" d="M437.3,430.7c-7.5,0-13.6-2.4-18.3-7.1s-9.3-17.3-1-31.8c4.1-7.1,14.3-12.8,19.8-15.9l2-1.1,1-.6-1.1-.4c-7.2-2.2-10.7-7.6-10.7-16.3a36,36,0,0,1,.7-7l2.6-15.3c1.3-7.6,4.5-13.8,9.4-18.4S453.1,310,461,310s13.2,1.9,16.1,5.6l.7.9.9-4.8h18.4l-11.5,64.8c-1.9,10.8-4.7,27-17.2,40.9C462.6,423.8,449.7,430.7,437.3,430.7Zm27.6-58.9c-6,2.8-24.2,11.3-30,24.8a7.7,7.7,0,0,0,.5,7.4,8.1,8.1,0,0,0,6.9,3.6h0a13.2,13.2,0,0,0,8-3.1c14.6-11.5,15.3-32,15.3-32.2v-.8Zm.2-44.2c-3.5,0-6.3.9-8.3,2.7a12.9,12.9,0,0,0-3.8,7.4l-1.7,9.7a15.7,15.7,0,0,0-.2,3.4,6.3,6.3,0,0,0,2.1,4.4c1.3,1.4,3.7,2.2,6.9,2.2a11.3,11.3,0,0,0,8.4-3.8h.1l3.9-22.2v-.2C471.1,328.8,468.7,327.6,465.1,327.6Z"/><path class="cls-2" d="M461,310.5c7.7,0,12.9,1.8,15.7,5.4l1.3,1.9.5-2.3.6-3.3h17.4l-11.3,63.5v.8c-1.9,10.6-4.6,26.7-17.1,40.5-5.7,6.4-18.4,13.2-30.7,13.2-7.3,0-13.4-2.3-18-6.9s-9-17-.9-31.2c4.1-7,14.2-12.7,19.6-15.8l2.1-1.1,1.9-1.1-2.1-.7c-7-2.2-10.4-7.4-10.4-15.9a46.2,46.2,0,0,1,.6-7l2.7-15.2c1.3-7.5,4.4-13.6,9.3-18.1s11.2-6.7,18.9-6.7m-.9,47.4a11.7,11.7,0,0,0,8.7-4l.2-.2v-.3l3.9-21.9v-.6c-1.4-2.5-4-3.8-7.8-3.8a12.4,12.4,0,0,0-8.6,2.9,12.8,12.8,0,0,0-4,7.6l-1.7,9.7a28.7,28.7,0,0,0-.2,3.5,7,7,0,0,0,2.2,4.8c1.5,1.5,3.9,2.3,7.3,2.3m-17.8,50.2a13.6,13.6,0,0,0,8.3-3.2c14.8-11.6,15.5-31.8,15.5-32.6v-1.6l-1.4.6c-6.1,2.9-24.4,11.4-30.3,25.1a8.5,8.5,0,0,0,.6,7.9,8.7,8.7,0,0,0,7.3,3.8M461,309.5c-8,0-14.6,2.3-19.6,6.9s-8.2,10.9-9.6,18.7l-2.6,15.3a37.8,37.8,0,0,0-.7,7.1q0,13.3,11.1,16.8c-4.9,2.8-17.3,9-22,17.3-8.4,14.6-5,26.3,1,32.4s11.8,7.2,18.7,7.2c12.4,0,25.4-6.8,31.5-13.5,12.9-14.3,15.5-30.8,17.4-41.8l11.5-64.7H478.3l-.8,4.1c-3-3.9-8.5-5.8-16.5-5.8Zm-.9,47.4c-3.1,0-5.3-.7-6.6-2a6.1,6.1,0,0,1-1.9-4.1,15.2,15.2,0,0,1,.2-3.3l1.7-9.8a10.9,10.9,0,0,1,11.6-9.6q5.1,0,6.9,3.3l-3.9,21.8a10.4,10.4,0,0,1-8,3.7Zm5,15.3s-.5,20.4-15.1,31.9a12.6,12.6,0,0,1-7.7,3c-5.5,0-9.2-5.1-7-10.3,5.4-12.5,21.5-20.7,29.8-24.6Z"/><path class="cls-4" d="M408.9,375c-7.7,0-12.7-1.7-15-5.2a13.6,13.6,0,0,1-2.2-7.5,37.6,37.6,0,0,1,.5-7.1l7.7-43.6H421L413.9,352a10.4,10.4,0,0,0-.2,1.5c0,1.9.8,4,4.4,4a12.1,12.1,0,0,0,4.8-.9l-.6,13.6A20.6,20.6,0,0,1,408.9,375Zm-15.1-88.7,16.8-16.7,16.7,16.8-16.8,16.7Z"/><path class="cls-2" d="M410.6,270.3l16,16.1-16.1,16-16-16.1,16.1-16m9.8,41.8-7,39.8a10,10,0,0,0-.2,1.6c0,2.9,1.8,4.5,4.9,4.5a11.8,11.8,0,0,0,4.3-.7l-.6,12.7a20.3,20.3,0,0,1-12.9,4.5c-7.5,0-12.4-1.7-14.5-5a12.7,12.7,0,0,1-2.2-7.2,36.5,36.5,0,0,1,.5-7l7.6-43.2h20.1m-9.8-43.2-17.5,17.4,17.4,17.6L428,286.4l-17.4-17.5Zm11,42.2H399.5l-7.8,44a39.4,39.4,0,0,0-.5,7.2,15,15,0,0,0,2.3,7.8c2.4,3.6,7.5,5.4,15.4,5.4a21.6,21.6,0,0,0,13.9-5l.7-14.8a10.8,10.8,0,0,1-5.4,1.3c-2.6,0-3.9-1.1-3.9-3.5,0-.4.1-.9.1-1.4l7.3-41Z"/><path class="cls-4" d="M517.6,375.1c-7.7,0-12.8-1.8-15-5.3a13.4,13.4,0,0,1-2.3-7.4,38,38,0,0,1,.6-7.2l7.7-43.6h21.1L522.5,352a9.2,9.2,0,0,0-.1,1.6c0,1.8.8,4,4.4,4a10.9,10.9,0,0,0,4.8-1l-.6,13.6A20.9,20.9,0,0,1,517.6,375.1Zm-15.1-88.7,16.8-16.7L536,286.5l-16.8,16.7Z"/><path class="cls-2" d="M519.3,270.4l16,16.1-16.1,16-16-16.1,16.1-16m9.8,41.7L522,352a8.6,8.6,0,0,0-.1,1.6c0,2.9,1.7,4.5,4.9,4.5a14.9,14.9,0,0,0,4.3-.7l-.6,12.6a20.4,20.4,0,0,1-12.9,4.6c-7.5,0-12.4-1.7-14.6-5a13.8,13.8,0,0,1-2.2-7.2,36.9,36.9,0,0,1,.6-7.1l7.6-43.2h20.1m-9.8-43.2-17.5,17.5,17.4,17.5,17.5-17.4-17.4-17.6Zm11,42.2H508.2l-7.8,44a39.1,39.1,0,0,0-.6,7.3,13.7,13.7,0,0,0,2.4,7.7c2.3,3.6,7.5,5.5,15.4,5.5a21.1,21.1,0,0,0,13.9-5.1l.6-14.7a11.2,11.2,0,0,1-5.3,1.3c-2.6,0-3.9-1.2-3.9-3.5a8.1,8.1,0,0,1,.1-1.5l7.3-41Z"/><path class="cls-2" d="M464.8,209a2.5,2.5,0,0,1-1.8-1.6,7.8,7.8,0,0,1-.6-3.8c.3-2.7,1.7-4.9,3.3-4.9h.1c.7,0,1.4.6,1.9,1.6a6.7,6.7,0,0,1,.5,3.8c-.2,2.7-1.7,4.9-3.2,4.9Z"/><path class="cls-2" d="M465.7,199.2h.1c1.1.1,2.2,2.1,1.9,4.9s-1.6,4.4-2.7,4.4h-.1a1.8,1.8,0,0,1-1.4-1.3,7,7,0,0,1-.6-3.6c.3-2.7,1.6-4.4,2.8-4.4m0-1c-1.8,0-3.5,2.3-3.8,5.3s1,5.8,2.9,6h.2c1.8,0,3.4-2.3,3.7-5.3s-1-5.9-2.8-6Z"/><path class="cls-2" d="M478.4,209.2c-.7,0-1.3-.6-1.8-1.6a7.6,7.6,0,0,1-.6-3.8c.3-2.7,1.7-4.9,3.3-4.9h.1a2.6,2.6,0,0,1,1.9,1.6,6.8,6.8,0,0,1,.5,3.8c-.2,2.7-1.7,4.9-3.2,4.9Z"/><path class="cls-2" d="M479.3,199.4h.1c.5,0,1,.5,1.4,1.3a6.1,6.1,0,0,1,.5,3.6c-.2,2.7-1.6,4.4-2.7,4.4h-.1a1.8,1.8,0,0,1-1.4-1.3,6.7,6.7,0,0,1-.6-3.6c.3-2.6,1.6-4.4,2.8-4.4m0-1c-1.8,0-3.5,2.3-3.8,5.3s1,5.9,2.9,6h.2c1.8,0,3.4-2.3,3.7-5.3s-1-5.8-2.8-6Z"/></g></g><path class="cls-1" d="M277.1,532.5a9.7,9.7,0,0,0,.8,4.5H259.4a22.7,22.7,0,0,1-.7-6.4c0-8.5,2.9-15.2,8.6-20.3s13.8-7.5,24.4-7.5c16.9,0,25.4,6.8,25.4,20.4a27.2,27.2,0,0,1-3.6,13.7,35.3,35.3,0,0,1-8.7,10.3,88.4,88.4,0,0,1-10.2,7c-3.4,2-6.4,3.7-8.9,5s-3.9,2.4-4.1,3.1h27.9l-2.9,16.3H251.9l1.4-7.7a27.6,27.6,0,0,1,5-11.8,32,32,0,0,1,8.8-8.1l10.4-5.8,10-5.1a21.5,21.5,0,0,0,7.4-5.8,11.8,11.8,0,0,0,3-7.9q0-7.5-8.4-7.5c-3.9,0-7,1.2-9.1,3.7S277.1,528.4,277.1,532.5Z"/><path class="cls-1" d="M355.9,502.8c16.5,0,24.7,7.3,24.7,22.1a50.7,50.7,0,0,1-.9,9l-2.5,14.6c-1.8,10.7-5.5,18.6-11.2,23.9s-13.5,7.8-23.6,7.8-17-2.6-20.9-7.7c-2.5-3.6-3.8-8.4-3.8-14.5a66.4,66.4,0,0,1,.8-9.5l2.5-14.6C324.6,513.1,336.3,502.8,355.9,502.8Zm-19.2,52c0,6.1,2.8,9.2,8.5,9.2a11.4,11.4,0,0,0,8.5-3.5c2.2-2.3,3.8-6.4,4.8-12.4l2.4-13.8a28.2,28.2,0,0,0,.7-5.9c0-6.3-2.8-9.4-8.4-9.4s-11.6,5.2-13.4,15.3l-2.5,13.8A44.7,44.7,0,0,0,336.7,554.8Z"/><path class="cls-1" d="M418.4,578.7H399.5l8.9-50.1c-1.7,2.7-4.8,5.3-9.2,7.8a28.3,28.3,0,0,1-14,3.8l-1.4-17.6a31.3,31.3,0,0,0,18.4-6c5.7-4,9.2-8.4,10.6-13.1h18.8Z"/><path class="cls-1" d="M452.9,548.3c-6,0-10.5-1.6-13.5-4.7s-4.6-7.4-4.6-12.5c0-8.9,2.7-15.9,8.2-20.9s13.5-7.4,24.2-7.4,18,2.2,21.9,6.5,3.9,7.3,3.9,12.8a41.3,41.3,0,0,1-.7,7.6L488,553.8c-3.1,17.6-14.3,26.4-33.4,26.4-8.2,0-14.3-1.5-18.5-4.3a14,14,0,0,1-6.3-12.1,21,21,0,0,1,.8-5.6,13.9,13.9,0,0,1,1.6-4.1l.7-1.4h18.5a9.6,9.6,0,0,0-1.8,5.6c0,3.8,2.6,5.7,7.9,5.7s10.6-3.9,12-11.7l.7-4Zm9-14.1h10.7l.6-3a47.3,47.3,0,0,0,.4-5.2c0-4.7-2.7-7-8.2-7q-11.4,0-11.4,8.7C454,532.1,456.7,534.2,461.9,534.2Z"/></g></svg>