<svg xmlns="http://www.w3.org/2000/svg" viewBox="0 0 200 60"><defs><style>.cls-1{fill:#5db6e7;}.cls-2{fill:#e95532;}.cls-3{fill:#fff;}.cls-4{opacity:0.4;}</style></defs><title>poweredBy</title><g id="powerdBy"><path class="cls-1" d="M44.6,38.2a3.7,3.7,0,0,0-2.9,0L28.9,45.6c-.8.4-.8,1.2,0,1.7l7.3,4.2a3.7,3.7,0,0,0,2.9,0l12.7-7.4c.8-.5.8-1.2,0-1.7Z"/><path class="cls-2" d="M53.3,31.1a3.3,3.3,0,0,0-1.5-2.5L39.1,21.2c-.8-.4-1.5-.1-1.5.9v8.3A3.4,3.4,0,0,0,39.1,33l12.7,7.3c.8.5,1.5.1,1.5-.8Z"/><path class="cls-3" d="M27.1,12.6a3.3,3.3,0,0,0-1.5,2.5V43.7c0,1,.7,1.4,1.5.9l7.2-4.2a3.1,3.1,0,0,0,1.5-2.6V9.2c0-.9-.6-1.3-1.5-.8Z"/><path class="cls-3" d="M91.5,37.8V22.1h2.3V37.8Z"/><path class="cls-3" d="M111.8,33a2.5,2.5,0,0,0,2.7,2.8,3.5,3.5,0,0,0,2.4-1.1l1.6,1.4a5,5,0,0,1-4,1.8c-2.3,0-4.9-1.1-4.9-5.7s2.4-5.7,4.6-5.7a4.5,4.5,0,0,1,4.6,4.7V33Zm4.7-1.8c-.1-1.7-1-2.6-2.3-2.6a2.3,2.3,0,0,0-2.4,2.6Z"/><path class="cls-3" d="M121.8,26.6h2.3v1.2h0a3.5,3.5,0,0,1,2.9-1.3,3.6,3.6,0,0,1,2.3.8l-1.6,2a2.2,2.2,0,0,0-1.5-.6c-1.1,0-2.1.7-2.1,2.4v6.7h-2.3Z"/><path class="cls-3" d="M131.8,34.4a4.8,4.8,0,0,0,3.5,1.4c1.3,0,2.2-.5,2.2-1.4s-.6-1.1-1.3-1.1l-2-.2c-1.9-.2-3.2-1.3-3.2-3.2s1.8-3.4,4.1-3.4a6.5,6.5,0,0,1,4.4,1.5l-1.4,1.6a5.1,5.1,0,0,0-3-1c-1.4,0-1.9.6-1.9,1.3s.4,1,1.5,1.1h1.8c2.4.2,3.3,1.6,3.3,3.4s-2,3.4-4.6,3.4a7.6,7.6,0,0,1-5-2Z"/><path class="cls-3" d="M150.9,36a5.3,5.3,0,0,1-4,1.9c-2.6,0-5.1-1.6-5.1-5.7s2.5-5.7,5.1-5.7a5.3,5.3,0,0,1,4,1.9l-1.7,1.5a2.7,2.7,0,0,0-2.2-1.2c-1.9,0-2.9,1.1-2.9,3.5s1,3.5,2.9,3.5a2.7,2.7,0,0,0,2.2-1.2Z"/><path class="cls-3" d="M154.1,27.9a4.1,4.1,0,0,1,3.3-1.4,4.2,4.2,0,0,1,3.4,1.4c.9,1,1.2,1.9,1.2,4.3s-.3,3.3-1.2,4.3a4.2,4.2,0,0,1-3.4,1.4,4.1,4.1,0,0,1-3.3-1.4c-.9-1-1.3-1.9-1.3-4.3S153.2,28.9,154.1,27.9Zm5.1,1.6a2.4,2.4,0,0,0-1.8-.8,2.7,2.7,0,0,0-1.8.8c-.4.6-.5,1.1-.5,2.7s.1,2,.5,2.6a2.4,2.4,0,0,0,1.8.9,2.1,2.1,0,0,0,1.8-.9c.5-.6.6-1,.6-2.6S159.7,30.1,159.2,29.5Z"/><path class="cls-3" d="M81.4,26.6v5.6c0,2.4-.3,3.3-1.2,4.3a4.8,4.8,0,0,1-6.8,0c-.8-1-1.2-1.9-1.2-4.3V26.6h2.2v5.6a3.8,3.8,0,0,0,.6,2.6,2.2,2.2,0,0,0,3.6,0,3.8,3.8,0,0,0,.6-2.6V26.6Z"/><path class="cls-3" d="M165.2,37.8V32.2c0-2.4.3-3.3,1.2-4.3a4.2,4.2,0,0,1,3.4-1.4,4.5,4.5,0,0,1,3.4,1.4c.8,1,1.2,1.9,1.2,4.3v5.6h-2.3V32.2c0-1.6-.1-2.1-.5-2.7a2.7,2.7,0,0,0-1.8-.8,2.4,2.4,0,0,0-1.8.8c-.5.6-.6,1.1-.6,2.7v5.6Z"/><path class="cls-3" d="M104.2,22.1v4.8a5.3,5.3,0,0,0-2.4-.6,4.4,4.4,0,0,0-3.4,1.5c-.8.9-1.2,1.8-1.2,4.2s.4,3.4,1.2,4.3a4.4,4.4,0,0,0,3.4,1.5,5.3,5.3,0,0,0,2.4-.6v.6h2.2V22.1Zm-2.4,13.4a2.1,2.1,0,0,1-1.8-.8c-.4-.6-.5-1-.5-2.7s.1-2,.5-2.6a2.4,2.4,0,0,1,3.6,0,3.6,3.6,0,0,1,.6,2.5v.4a3.5,3.5,0,0,1-.6,2.4A2.1,2.1,0,0,1,101.8,35.5Z"/><path class="cls-3" d="M59.9,22.1V37.8h2.2v-.6a5.3,5.3,0,0,0,2.4.6,4.4,4.4,0,0,0,3.4-1.5c.8-.9,1.2-1.8,1.2-4.3s-.4-3.3-1.2-4.2a4.4,4.4,0,0,0-3.4-1.5,5.3,5.3,0,0,0-2.4.6V22.1Zm2.8,12.6a3.5,3.5,0,0,1-.6-2.4v-.4a3.6,3.6,0,0,1,.6-2.5,2.4,2.4,0,0,1,3.6,0c.4.6.5,1,.5,2.6s-.1,2.1-.5,2.7a2.4,2.4,0,0,1-3.6,0Z"/><path class="cls-3" d="M85.3,26.6V37.8h2.3V26.6Zm1.2-1.2a1,1,0,0,0,.8-.4,1.7,1.7,0,0,0,.3-1.2,1.9,1.9,0,0,0-.3-1.3,1,1,0,0,0-.8-.4,1.3,1.3,0,0,0-.9.4,1.7,1.7,0,0,0-.3,1.2,1.9,1.9,0,0,0,.3,1.3A1.3,1.3,0,0,0,86.5,25.4Z"/></g></svg>