<svg xmlns="http://www.w3.org/2000/svg" viewBox="0 0 35 35"><defs><style>.cls-1{fill:#00a4de;}.cls-2{fill:#fff;}.cls-3{opacity:0.4;}</style></defs><title>shareIcon_hateb</title><g id="レイヤー_10" data-name="レイヤー 10"><rect class="cls-1" width="35" height="35" rx="7.1"/><path class="cls-2" d="M19.5,18.1a4,4,0,0,0-2.7-1.2A4.5,4.5,0,0,0,19,15.7a3.2,3.2,0,0,0,.7-2.2,3.4,3.4,0,0,0-.5-1.9,3.3,3.3,0,0,0-1.3-1.3,4.8,4.8,0,0,0-1.8-.6l-3.8-.2H8v16h4.4l4-.2,2-.7a3.6,3.6,0,0,0,1.5-1.5,4.8,4.8,0,0,0,.5-2.2A4.1,4.1,0,0,0,19.5,18.1Zm-7.5-5h.9a5.4,5.4,0,0,1,2.2.3,1.4,1.4,0,0,1,.5,1.3,1.2,1.2,0,0,1-.6,1.2,4.7,4.7,0,0,1-2.2.4H12V13.1Zm3.7,9.1a5.4,5.4,0,0,1-2.2.4H12V19.1h1.6a3.7,3.7,0,0,1,2.1.4,1.6,1.6,0,0,1,.6,1.4,1.4,1.4,0,0,1-.6,1.3Z"/><path class="cls-2" d="M25,21.4a2,2,0,0,0-2,2,2,2,0,1,0,4,0h0A2,2,0,0,0,25,21.4Z"/><rect class="cls-2" x="23.3" y="9.5" width="3.5" height="10.61"/></g></svg>