<svg xmlns="http://www.w3.org/2000/svg" viewBox="0 0 35 35"><defs><style>.cls-1{fill:#4267b2;}.cls-2{fill:#fff;}.cls-3{opacity:0.4;}</style></defs><title>shareIcon_facebook</title><g id="レイヤー_8" data-name="レイヤー 8"><path class="cls-1" d="M33.1,0H1.9A2,2,0,0,0,0,1.9V33.1A2,2,0,0,0,1.9,35H18.7V21.5H14.2V16.2h4.5V12.3c0-4.5,2.8-7,6.8-7l4.1.2v4.7H26.8c-2.2,0-2.6,1.1-2.6,2.6v3.4h5.2l-.7,5.3H24.2V35h8.9A2,2,0,0,0,35,33.1V1.9A2,2,0,0,0,33.1,0Z"/><path id="f" class="cls-2" d="M24.2,35V21.5h4.5l.7-5.3H24.2V12.8c0-1.5.4-2.6,2.6-2.6h2.8V5.5a28.2,28.2,0,0,0-4.1-.2c-4,0-6.8,2.4-6.8,7v3.9H14.2v5.3h4.5V35Z"/></g></svg>