<svg xmlns="http://www.w3.org/2000/svg" viewBox="0 0 35 35"><defs><style>.cls-1{fill:#fff;}.cls-2{fill:#1da1f2;}.cls-3{opacity:0.4;}</style></defs><title>shareIcon_twitter</title><g id="レイヤー_9" data-name="レイヤー 9"><rect class="cls-1" width="35" height="35" rx="2"/><path class="cls-2" d="M13.4,26.4A12.8,12.8,0,0,0,26.3,13.6a1.3,1.3,0,0,0-.1-.6,8.4,8.4,0,0,0,2.3-2.3,11.1,11.1,0,0,1-2.6.7,4.9,4.9,0,0,0,2-2.5A10.2,10.2,0,0,1,25,10a4.6,4.6,0,0,0-6.4-.2,4.8,4.8,0,0,0-1.3,4.3A13,13,0,0,1,8,9.4a4.5,4.5,0,0,0,1.4,6,3.6,3.6,0,0,1-2-.6h0A4.4,4.4,0,0,0,11,19.3a4.6,4.6,0,0,1-2,.1,4.4,4.4,0,0,0,4.2,3.1,8.9,8.9,0,0,1-5.6,2H6.5a13.2,13.2,0,0,0,6.9,2"/></g></svg>