<svg xmlns="http://www.w3.org/2000/svg" viewBox="0 0 265 50"><defs><style>.cls-1,.cls-2{fill:#09080a;}.cls-2{font-size:28px;font-family:FugazOne-Regular, Fugaz One;}.cls-3{letter-spacing:-0.02em;}.cls-4{opacity:0.4;}</style></defs><title>textLogo-black</title><g id="テキストロゴ_黒_" data-name="テキストロゴ（黒）"><g id="ロゴ"><path class="cls-1" d="M50.7,2.7,44.3,39.5H37.4L39,30.3H32.2l-1.6,9.2H24.2l4.5-25.3H35L33.1,24.9h6.8l4-22.2Z"/><path class="cls-1" d="M58.4,31.8H54.2L51.9,46.6H45.6L51,14.2H61.7c2.6,0,4.5.6,5.6,1.8a5.2,5.2,0,0,1,1.3,3.6,10,10,0,0,1-.2,1.6l-.7,3.9a7.1,7.1,0,0,1-3.1,4.8A9.7,9.7,0,0,1,58.4,31.8Zm1.1-12.1H56.3l-1.1,6.6h3.1c1.9,0,3-.8,3.3-2.5l.3-1.5v-.8a1.6,1.6,0,0,0-.5-1.2A2.4,2.4,0,0,0,59.5,19.7Z"/><path class="cls-1" d="M15.1,31.8H10.9L8.5,46.6H2.2L7.7,14.2H18.4c2.6,0,4.5.6,5.6,1.8a5.6,5.6,0,0,1,1.2,3.6,9.2,9.2,0,0,1-.1,1.6l-.7,3.9a7.1,7.1,0,0,1-3.1,4.8A9.9,9.9,0,0,1,15.1,31.8Zm1.1-12.1H13l-1.1,6.6H15c1.9,0,3-.8,3.3-2.5l.2-1.5a1.9,1.9,0,0,0,.1-.8,2.1,2.1,0,0,0-.5-1.2A2.5,2.5,0,0,0,16.2,19.7Z"/><path class="cls-1" d="M78,22.1a11.2,11.2,0,0,0-6.6,1.8A7.6,7.6,0,0,0,68.3,29l-.7,4.4a7.7,7.7,0,0,0-.2,1.5c0,3.4,2.4,5,7.3,5s8.4-2.1,9.2-6.5H78a1.9,1.9,0,0,1-.7,1.3,2.2,2.2,0,0,1-1.4.5c-1.5,0-2.3-.7-2.3-2a2,2,0,0,1,.1-.7v-.8H84.5l.4-2.5a11.1,11.1,0,0,0,.2-1.7C85.1,23.8,82.7,22.1,78,22.1Zm-2,5.8c-.1.9-.6,1.5-1.1,1.5s-.8-.8-.7-1.6.5-1.5,1-1.5A1.4,1.4,0,0,1,76,27.9Zm3.7.1c-.1.8-.6,1.5-1.1,1.4s-.9-.7-.8-1.6.6-1.5,1.1-1.4S79.7,27.2,79.7,28Z"/><path class="cls-1" d="M102.6,26.2a9.3,9.3,0,0,1-.4,2.3,11.6,11.6,0,0,1-.8,1.6l-.4.5H95.7a2.5,2.5,0,0,0,.9-2,1.8,1.8,0,0,0-.4-1,1.5,1.5,0,0,0-1.1-.4A2.6,2.6,0,0,0,93,28.4L91,39.5H85.1l3-16.9h5.5l-.4,2.3A5.9,5.9,0,0,1,98,22.1a4.8,4.8,0,0,1,3.4,1.1A3.8,3.8,0,0,1,102.6,26.2Z"/><path class="cls-1" d="M137.7,3,126.4,21.4l3.5,12.5h-6.6l-2.7-9.3h-2.7l-3.1,19.8h-6.3l5.9-35.8h6.3l-1.9,10.5h2.3L131,3Z"/><path class="cls-1" d="M147.4,28.5a.8.8,0,0,0,.9.9,2.4,2.4,0,0,0,1.5-.4v4a6.2,6.2,0,0,1-3.8,1.4c-2.6,0-4-1-4.3-2.8a5.9,5.9,0,0,1-5.1,2.8c-3.9,0-5.8-1.7-5.8-5a12.4,12.4,0,0,1,.2-1.8l.7-4.1a8.9,8.9,0,0,1,2.6-5.1,7.5,7.5,0,0,1,5.2-1.9c2.2,0,3.7.6,4.4,1.6L144,17h5.4l-2,11ZM137,26.8a2.2,2.2,0,0,0-.1.9,2.1,2.1,0,0,0,.5,1.1,3,3,0,0,0,1.8.5,2.8,2.8,0,0,0,2.2-1l1-5.9c-.2-.5-.9-.8-1.8-.8a2.9,2.9,0,0,0-3.2,2.6Z"/><path class="cls-1" d="M158.7,29.4a2.3,2.3,0,0,0,1.4-.4v4a5.9,5.9,0,0,1-3.8,1.4c-2.1,0-3.5-.5-4.1-1.5a4.2,4.2,0,0,1-.6-2.1,10.9,10.9,0,0,1,.1-1.9L153.7,17h6l-2,11v.4C157.7,29.1,158,29.4,158.7,29.4Z"/><path class="cls-1" d="M172.3,45.7c-2.5,2.8-9.5,5.6-13.5,1.7-1.6-1.7-2.5-4.8-.3-8.7,1.3-2.3,4.6-3.9,6-4.7q-3-.9-3-4.5a6.5,6.5,0,0,1,.2-1.9l.7-4.1a8.8,8.8,0,0,1,2.5-5.1,8,8,0,0,1,5.3-1.9c2.2,0,3.7.6,4.5,1.6l.2-1.1h5.2L177,34.4C176.5,37.4,175.8,41.8,172.3,45.7Zm-1-12.3c-2.2,1.1-6.5,3.3-8,6.7s1.5,3.9,4,1.9S171.3,33.4,171.3,33.4Zm-3.5-6.6a2.2,2.2,0,0,0-.1.9,2.1,2.1,0,0,0,.5,1.1,2.8,2.8,0,0,0,1.8.5,2.6,2.6,0,0,0,2.1-1l1.1-5.9a2.1,2.1,0,0,0-1.9-.8,2.8,2.8,0,0,0-2.1.7,2.9,2.9,0,0,0-1,1.9Z"/><path class="cls-1" d="M158.7,29.4a3.3,3.3,0,0,0,1.4-.4l-.2,4a5.6,5.6,0,0,1-3.7,1.3c-2.1,0-3.5-.5-4.1-1.4a3.5,3.5,0,0,1-.7-2.1,11.2,11.2,0,0,1,.2-2L153.7,17h5.9l-1.9,11a.8.8,0,0,0-.1.4A1,1,0,0,0,158.7,29.4Zm-2-23.8,4.7,4.7L156.6,15l-4.7-4.7Z"/><path class="cls-1" d="M187.9,29.4a3.3,3.3,0,0,0,1.5-.4l-.2,4a5.7,5.7,0,0,1-3.8,1.3c-2.1,0-3.5-.5-4.1-1.4a4.2,4.2,0,0,1-.6-2.1,12.1,12.1,0,0,1,.1-2L182.9,17h6l-2,11v.4A.9.9,0,0,0,187.9,29.4Zm-2-23.8,4.7,4.8L185.9,15l-4.7-4.7Z"/><text class="cls-2" transform="translate(196.2 34.1)"><tspan class="cls-3">201</tspan><tspan x="48.8" y="0">9</tspan></text></g></g></svg>